<svg width="20" height="20" id="eohpCl3PVjW1" xmlns="http://www.w3.org/2000/svg" xmlns:xlink="http://www.w3.org/1999/xlink" viewBox="0 0 300 300" shape-rendering="geometricPrecision" text-rendering="geometricPrecision"><g transform="matrix(.11326 0 0-.113381-20.251951 319.628716)"><path d="M372,2749c-46-14-109-80-122-128-7-27-10-384-8-1148l3-1108l24-38c13-21,42-50,64-65l41-27h1131h1131l41,27c22,15,51,44,64,65l24,38v812v813l-383,382-382,383-798,2c-485,1-810-2-830-8Zm1500-932c211-120,337-197,335-206-2-14-262-170-285-170-7-1-102,50-212,113l-200,115-200-115c-110-63-204-114-209-114-21,0-292,163-288,174c6,19,691,407,707,400c8-3,167-92,352-197Zm-151-319c82-46,148-86,149-89c0-3-12-11-27-18-26-12-20-16,183-131c115-66,210-123,212-128c3-9-277-172-296-172-7,0-107,54-222,120l-210,120-208-120c-115-66-215-120-223-120-24,1-284,155-286,170-2,10,125,88,380,232c210,120,386,218,391,218s76-37,157-82Z" transform="matrix(1.00378 0 0 1.013853-5.68208-20.7254)" fill="#f0f0f1"/></g><path d="M199.680417,24.709473v75.9h76.5l-76.5-75.9Z" transform="matrix(1.075983 0 0 1.177621-4.45472-23.399398)" fill="#a1a1a1" stroke="#3f5787" stroke-width="0.6"/></svg>
